<svg width="126" height="25" viewBox="0 0 126 25" fill="none" xmlns="http://www.w3.org/2000/svg">
<path fill-rule="evenodd" clip-rule="evenodd" d="M80.193 17.9204C74.6457 13.7918 73.7747 14.1143 62.7188 24.3871C73.1106 13.443 73.4425 12.5788 69.3741 6.98393C74.9213 11.1126 75.7924 10.7901 86.8483 0.517269C76.4564 11.4614 76.1246 12.3256 80.193 17.9204ZM121.896 18.0833C121.281 18.0799 120.81 17.9088 120.481 17.5699C120.152 17.231 119.99 16.7673 119.993 16.1823L120.032 8.84127L116.8 8.82378L116.808 7.30666L120.041 7.32415L120.061 3.49993L121.797 3.50932L121.776 7.33353L125.293 7.35255L125.285 8.86968L121.768 8.85065L121.729 15.9306C121.727 16.3702 121.937 16.5928 122.364 16.5951L124.76 16.608L124.752 18.102L121.893 18.0866L121.896 18.0833ZM21.3025 4.20859L21.2363 16.4513L23.5004 16.4636L23.5666 4.22083L21.3025 4.20859ZM44.7514 16.3305L44.7641 13.9805L48.0993 12.7359L44.7777 11.4552L44.7904 9.1052L51.2623 11.5564L51.2788 11.5565L51.2658 13.9727L51.2493 13.9726L44.7513 16.3404L44.7513 16.3338L44.7514 16.3305ZM42.0221 5.76501L38.1416 17.9871L40.4057 17.9994L44.2862 5.77726L42.0221 5.76501ZM7.16705 11.242L7.17976 8.89191L0.675138 11.2696L0.661917 11.2696L0.648866 13.6824L0.662088 13.6825L7.14059 16.1338L7.15332 13.7804L3.83177 12.4932L7.16703 11.2453L7.16705 11.242ZM18.875 11.2226C18.9165 10.2676 18.5844 9.33037 17.9437 8.61955L17.947 8.62287C17.3028 7.94509 16.4024 7.57332 15.4668 7.60793C14.4656 7.55954 13.4918 7.92448 12.7675 8.6213L12.7717 7.84787L10.5075 7.83562L10.4612 16.3963L12.7254 16.4085L12.7459 12.6174C12.7565 10.6474 13.4692 9.6696 14.8871 9.67727C15.3698 9.66005 15.8314 9.86417 16.1435 10.2328C16.4718 10.6444 16.6375 11.1675 16.6082 11.6929L16.5826 16.4261L18.8467 16.4383L18.875 11.2226ZM33.6744 16.5185L35.5584 16.5287L38.7811 7.96871L36.3617 7.95562L34.5523 13.0923L32.7424 7.93604L30.9774 7.9265L29.1119 13.0463L27.3581 7.90692L24.9386 7.89383L28.0653 16.4882L29.9526 16.4984L31.8507 11.468L33.6744 16.5185ZM61.9897 18.0666C60.9056 18.0608 59.9549 17.8243 59.1344 17.3571C58.3172 16.8899 57.6828 16.2386 57.2312 15.3999C56.7829 14.5612 56.56 13.5948 56.566 12.4942L56.5674 12.2298C56.5734 11.1159 56.8068 10.1421 57.2641 9.30828C57.7215 8.47449 58.3563 7.83007 59.1653 7.37169C59.9743 6.91332 60.8977 6.68693 61.9389 6.69256C62.98 6.69819 63.8415 6.91771 64.6159 7.3549C65.3903 7.7921 65.9952 8.41347 66.4304 9.22234C66.8656 10.0312 67.082 10.9777 67.0761 12.0618L67.0718 12.8518L58.2996 12.8044C58.3363 13.9614 58.7049 14.8691 59.4054 15.5241C60.1059 16.179 60.9834 16.511 62.0378 16.5167C62.9599 16.5217 63.6717 16.314 64.1731 15.8903C64.6745 15.4666 65.0574 14.963 65.325 14.3794L66.815 15.1113C66.5911 15.5629 66.2846 16.0174 65.8954 16.4681C65.5029 16.9188 64.9985 17.2995 64.3721 17.6036C63.7457 17.9076 62.9516 18.0586 61.9832 18.0534L61.9897 18.0666ZM58.3337 11.3865L65.3244 11.4243C65.2703 10.4291 64.9341 9.65056 64.3157 9.0886C63.694 8.52994 62.9022 8.24469 61.9338 8.23945C60.9653 8.23421 60.1441 8.50743 59.5098 9.06261C58.8755 9.61779 58.4846 10.3924 58.3304 11.3865L58.3337 11.3865ZM83.2858 7.12545L83.2039 22.2702L83.2072 22.2735L84.9425 22.2829L84.9754 16.1946L85.2828 16.1963C85.4562 16.5211 85.7024 16.8365 86.0247 17.1456C86.3469 17.4548 86.7654 17.7082 87.2865 17.9094C87.8044 18.1105 88.4384 18.2131 89.1854 18.2171C90.1241 18.2222 90.9814 18.0054 91.7506 17.5699C92.5198 17.1345 93.138 16.4999 93.5954 15.6661C94.0527 14.8323 94.2861 13.8453 94.2923 12.7016L94.2939 12.4174C94.3001 11.2605 94.0741 10.2677 93.6158 9.44549C93.1575 8.62328 92.5462 7.98534 91.7784 7.53496C91.0107 7.08459 90.1658 6.85525 89.2436 6.85026C88.1297 6.84424 87.2593 7.05108 86.6356 7.4741C86.0086 7.8971 85.5565 8.37724 85.2759 8.9178L84.9685 8.91614L84.9781 7.1346L83.2858 7.12545ZM91.4505 15.6181C90.7525 16.3283 89.8449 16.6771 88.7311 16.6711C87.6337 16.6651 86.73 16.3033 86.0232 15.5888C85.3164 14.8743 84.9648 13.8808 84.9717 12.605L84.9728 12.4066C84.9797 11.1308 85.342 10.1411 86.0565 9.43435C86.771 8.72756 87.662 8.37541 88.7759 8.38143C89.8898 8.38746 90.7902 8.7493 91.4837 9.46371C92.1773 10.1781 92.519 11.1716 92.5121 12.4474L92.511 12.6457C92.5041 13.9216 92.1484 14.9113 91.4505 15.6181ZM101.799 18.282C100.715 18.2761 99.7639 18.0396 98.9434 17.5724C98.1262 17.1052 97.4918 16.4539 97.0402 15.6152C96.5919 14.7765 96.369 13.8102 96.375 12.7095L96.3764 12.4451C96.3824 11.3312 96.6158 10.3574 97.0731 9.52361C97.5305 8.68982 98.1653 8.04539 98.9743 7.58702C99.7832 7.12864 100.707 6.90226 101.748 6.90789C102.789 6.91352 103.651 7.13304 104.425 7.57023C105.199 8.00742 105.804 8.6288 106.239 9.43766C106.675 10.2465 106.891 11.193 106.885 12.2772L106.881 13.0671L98.1086 13.0197C98.1453 14.1768 98.5139 15.0844 99.2144 15.7394C99.9149 16.3943 100.792 16.7263 101.847 16.732C102.769 16.737 103.481 16.5293 103.982 16.1056C104.484 15.6819 104.866 15.1783 105.134 14.5947L106.624 15.3266C106.4 15.7782 106.094 16.2327 105.704 16.6835C105.312 17.1342 104.807 17.5149 104.181 17.8189C103.555 18.1229 102.761 18.2739 101.792 18.2687L101.799 18.282ZM98.1427 11.6019L105.133 11.6397C105.079 10.6445 104.743 9.86588 104.125 9.30393C103.503 8.74526 102.711 8.46001 101.743 8.45477C100.774 8.44954 99.9531 8.72276 99.3188 9.27793C98.6845 9.83311 98.2935 10.6078 98.1394 11.6018L98.1427 11.6019ZM109.47 7.26706L109.412 18.0158L111.147 18.0252L111.183 11.4741C111.188 10.5652 111.429 9.89551 111.908 9.46509C112.386 9.03467 113.015 8.82323 113.792 8.82743L115.177 8.83492L115.185 7.25169L113.91 7.24479C113.265 7.2413 112.745 7.34757 112.348 7.56688C111.95 7.78619 111.657 8.12837 111.463 8.59668L111.155 8.59502L111.163 7.27621L109.47 7.26706Z" fill="#334155"/>
</svg>
